<svg xmlns="http://www.w3.org/2000/svg" viewBox="0 0 960 540" role="img" aria-labelledby="title desc">
  <title id="title">Алгоритм дерматологического приема</title>
  <desc id="desc">Схема для врачей: анамнез, осмотр, тесты, план и контроль.</desc>
  <rect width="960" height="540" fill="#fbfcfb"/>
  <rect x="44" y="44" width="872" height="452" rx="26" fill="#f2edf4" stroke="#dce8e2"/>
  <text x="86" y="108" fill="#111816" font-family="Inter, Arial, sans-serif" font-size="34" font-weight="800">Алгоритм первичного пациента</text>
  <text x="86" y="146" fill="#62716d" font-family="Inter, Arial, sans-serif" font-size="18">Профессиональный трек: структура снижает риск случайных решений</text>
  <g transform="translate(58 226)" font-family="Inter, Arial, sans-serif">
    <g>
      <rect width="142" height="104" rx="16" fill="#fff"/>
      <text x="24" y="46" fill="#67456d" font-size="22" font-weight="800">01</text>
      <text x="24" y="76" fill="#111816" font-size="17" font-weight="800">анамнез</text>
    </g>
    <g transform="translate(176)">
      <rect width="142" height="104" rx="16" fill="#fff"/>
      <text x="24" y="46" fill="#67456d" font-size="22" font-weight="800">02</text>
      <text x="24" y="76" fill="#111816" font-size="17" font-weight="800">осмотр</text>
    </g>
    <g transform="translate(352)">
      <rect width="142" height="104" rx="16" fill="#fff"/>
      <text x="24" y="46" fill="#67456d" font-size="22" font-weight="800">03</text>
      <text x="24" y="76" fill="#111816" font-size="17" font-weight="800">тесты</text>
    </g>
    <g transform="translate(528)">
      <rect width="142" height="104" rx="16" fill="#fff"/>
      <text x="24" y="46" fill="#67456d" font-size="22" font-weight="800">04</text>
      <text x="24" y="76" fill="#111816" font-size="17" font-weight="800">план</text>
    </g>
    <g transform="translate(704)">
      <rect width="142" height="104" rx="16" fill="#fff"/>
      <text x="24" y="46" fill="#67456d" font-size="22" font-weight="800">05</text>
      <text x="24" y="76" fill="#111816" font-size="17" font-weight="800">контроль</text>
    </g>
  </g>
  <path d="M200 278h28m148 0h28m148 0h28m148 0h28" stroke="#67456d" stroke-width="7" stroke-linecap="round"/>
</svg>
